<?xml version="1.0" standalone="no"?>
<!DOCTYPE svg PUBLIC "-//W3C//DTD SVG 20010904//EN"
 "http://www.w3.org/TR/2001/REC-SVG-20010904/DTD/svg10.dtd">
<svg version="1.0" xmlns="http://www.w3.org/2000/svg"
 width="360.000000pt" height="363.000000pt" viewBox="0 0 360.000000 363.000000"
 preserveAspectRatio="xMidYMid meet">

<g transform="translate(0.000000,363.000000) scale(0.100000,-0.100000)"
fill="#000000" stroke="none">
<path d="M245 3317 c11 -8 160 -96 332 -195 l312 -182 375 0 376 0 0 195 0
195 -707 0 c-596 0 -704 -2 -688 -13z"/>
<path d="M1960 3135 l0 -195 374 0 375 0 313 183 c172 101 322 189 333 195 15
9 -149 11 -687 12 l-708 0 0 -195z"/>
<path d="M84 3013 c31 -60 678 -1189 685 -1196 8 -8 321 169 321 181 0 4 -87
157 -193 341 l-192 334 -314 184 c-173 100 -316 183 -318 183 -2 0 3 -12 11
-27z"/>
<path d="M3214 2862 c-166 -97 -308 -183 -317 -190 -14 -12 -369 -627 -382
-663 -5 -13 29 -37 150 -109 87 -50 161 -88 165 -83 4 4 162 278 350 608 188
330 344 603 347 608 10 17 -28 -3 -313 -171z"/>
<path d="M1090 1619 c-85 -50 -156 -92 -157 -93 -1 0 158 -280 353 -621 l354
-620 0 377 0 376 -191 336 c-105 185 -194 336 -198 336 -3 0 -76 -41 -161 -91z"/>
<path d="M2151 1377 l-191 -335 2 -373 3 -373 345 604 c190 332 345 610 345
618 0 11 -253 169 -301 189 -7 2 -93 -137 -203 -330z"/>
</g>
</svg>
